<?xml version="1.0" standalone="no"?>
<!DOCTYPE svg PUBLIC "-//W3C//DTD SVG 20010904//EN"
 "http://www.w3.org/TR/2001/REC-SVG-20010904/DTD/svg10.dtd">
<svg version="1.0" xmlns="http://www.w3.org/2000/svg"
 width="1250.000000pt" height="1250.000000pt" viewBox="0 0 1250.000000 1250.000000"
 preserveAspectRatio="xMidYMid meet">

<g transform="translate(0.000000,1250.000000) scale(0.100000,-0.100000)"
fill="#000000" stroke="none">
<path d="M5930 11801 c-265 -57 -463 -265 -510 -535 -7 -40 -10 -1187 -10
-3458 0 -2333 -3 -3398 -10 -3398 -6 0 -66 25 -133 56 -148 68 -255 106 -407
143 -182 45 -279 55 -478 48 -363 -12 -635 -66 -1032 -202 -107 -36 -251 -80
-320 -97 -116 -29 -138 -31 -310 -32 -174 -1 -191 1 -284 27 -133 38 -220 70
-356 130 -113 49 -184 66 -234 53 -36 -9 -96 -65 -112 -103 -12 -27 -14 -364
-14 -1960 0 -1922 0 -1927 21 -1969 22 -46 69 -88 122 -107 25 -10 1003 -13
4617 -12 l4585 1 50 26 c57 30 89 61 104 101 8 20 11 645 11 2058 0 1850 -1
2033 -16 2062 -9 18 -26 42 -37 54 -27 31 -117 63 -174 63 -79 0 -282 -39
-446 -86 -153 -43 -197 -60 -452 -176 -125 -57 -253 -104 -390 -141 -69 -19
-104 -22 -260 -21 -221 1 -288 15 -664 140 -299 100 -444 136 -651 163 -84 11
-153 21 -155 23 -2 2 -7 1497 -12 3323 l-9 3320 -27 73 c-40 112 -84 180 -167
262 -53 52 -99 86 -151 112 -148 75 -113 72 -899 75 -649 2 -712 1 -790 -16z
m1471 -350 c74 -20 139 -76 179 -154 l34 -68 6 -297 c3 -163 4 -406 2 -539
l-3 -243 -477 0 c-302 0 -491 -4 -515 -11 -21 -5 -53 -24 -72 -40 -89 -78 -67
-231 42 -285 35 -18 71 -19 531 -22 l492 -3 0 -384 0 -384 -243 -3 -244 -3
-42 -28 c-92 -61 -107 -182 -33 -260 56 -60 67 -62 312 -64 124 -1 231 -2 238
-2 9 -1 12 -86 12 -391 l0 -390 -477 0 c-448 0 -481 -2 -520 -19 -62 -29 -98
-88 -98 -162 1 -49 5 -64 31 -96 60 -75 41 -73 580 -73 377 0 483 -3 485 -12
2 -7 3 -174 1 -370 l-3 -358 -218 0 c-165 0 -230 -4 -268 -15 -132 -39 -171
-199 -71 -292 51 -48 82 -53 328 -53 l230 0 0 -22 c1 -116 1 -729 1 -750 l-1
-28 -487 0 c-453 0 -491 -2 -528 -19 -137 -63 -143 -244 -10 -311 l50 -25 485
-3 c366 -2 486 -6 492 -15 9 -13 10 -515 2 -563 -6 -31 -6 -31 -100 -43 -210
-28 -396 -86 -711 -224 -131 -58 -317 -121 -418 -143 -62 -13 -131 -17 -305
-17 -124 1 -245 5 -270 10 l-45 9 -6 2384 c-3 1312 -5 2871 -5 3465 1 1042 2
1082 20 1125 48 111 118 172 228 194 88 18 1322 15 1389 -3z m3477 -8735 c2
-136 0 -177 -10 -180 -7 -2 -62 -13 -123 -25 -177 -33 -363 -95 -562 -186
-188 -87 -325 -139 -467 -177 -116 -32 -387 -32 -526 0 -111 25 -339 94 -502
153 -350 126 -884 190 -1195 143 -195 -28 -452 -108 -613 -189 -25 -13 -97
-43 -160 -68 -260 -103 -423 -132 -690 -124 -259 8 -386 41 -715 184 -392 171
-613 221 -928 210 -350 -12 -618 -60 -917 -162 -417 -143 -558 -175 -766 -175
-155 0 -341 44 -551 132 l-73 30 0 164 c0 129 3 164 13 164 7 0 53 -14 103
-30 226 -77 269 -84 509 -85 194 0 233 3 330 24 113 24 375 101 500 147 121
45 246 81 375 108 134 28 418 56 565 56 189 0 418 -56 623 -151 35 -16 66 -29
70 -29 4 0 21 -7 37 -16 86 -46 325 -129 445 -155 52 -12 115 -26 140 -32 25
-6 152 -11 290 -11 231 -1 253 1 375 27 182 39 325 87 565 192 162 70 206 87
320 120 165 47 267 59 445 52 341 -14 511 -46 844 -157 452 -150 538 -170 776
-177 105 -4 204 -1 258 6 171 23 421 107 667 224 69 32 157 70 195 84 87 30
326 93 340 89 6 -1 11 -73 13 -180z"/>
<path d="M3175 11011 c-46 -11 -68 -26 -111 -73 -56 -61 -1784 -2482 -1811
-2537 -27 -54 -29 -88 -8 -138 20 -48 41 -71 87 -94 35 -18 65 -19 460 -19
233 0 433 -3 446 -6 l22 -6 0 -1259 c0 -862 3 -1267 11 -1286 15 -40 67 -92
114 -114 38 -18 81 -19 810 -19 499 0 783 4 807 10 48 14 94 53 118 101 20 37
20 67 20 1314 0 701 1 1275 3 1276 1 0 198 2 437 4 239 3 456 7 483 10 83 10
147 85 147 174 0 67 16 41 -271 432 -238 325 -703 962 -879 1204 -356 491
-693 949 -713 972 -38 42 -117 67 -172 54z"/>
</g>
</svg>
